<?xml version="1.0" encoding="utf-8"?>
<!-- Generator: Adobe Illustrator 24.3.0, SVG Export Plug-In . SVG Version: 6.00 Build 0)  -->
<svg version="1.1" id="Layer_1" xmlns="http://www.w3.org/2000/svg" xmlns:xlink="http://www.w3.org/1999/xlink" x="0px" y="0px"
	 viewBox="0 0 136 50" style="enable-background:new 0 0 136 50;" xml:space="preserve">
<style type="text/css">
	.st0{fill:#6990FF;}
	.st1{fill:#1C2528;}
</style>
<g>
	<g>
		<path class="st0" d="M40.1,46.2H13.5c-1.4,0-2.5-1.1-2.5-2.5v-9.1c0-0.2,0.1-0.3,0.2-0.5c0.1-0.1,0.3-0.2,0.5-0.2
			c0.2,0,0.3,0,0.5,0c3.9,0,7.2-3.2,7.2-7.2c0-3.9-3.2-7.2-7.2-7.2c-0.2,0-0.3,0-0.5,0c-0.2,0-0.3-0.1-0.5-0.2S11,19.1,11,19V6.4
			c0-1.4,1.1-2.5,2.5-2.5H35c0.2,0,0.3,0.1,0.4,0.2L38,6.5c1.4,1.4,2.7,2.7,4.5,4.5c0.1,0.1,0.2,0.3,0.2,0.4v19.9
			c0,0.3-0.2,0.5-0.4,0.6c-0.2,0.1-0.5,0-0.7-0.2c-1.2-1.4-3-2.1-4.9-2.1c-3.6,0-6.6,3-6.6,6.6c0,3.6,3,6.6,6.6,6.6
			c1.8,0,3.6-0.8,4.9-2.1c0.2-0.2,0.5-0.3,0.7-0.2c0.2,0.1,0.4,0.3,0.4,0.6v2.5C42.7,45,41.5,46.2,40.1,46.2z M12.3,35.2v8.5
			c0,0.7,0.6,1.3,1.3,1.3h26.6c0.7,0,1.3-0.6,1.3-1.3v-1.1c-1.4,1-3,1.6-4.7,1.6c-4.3,0-7.9-3.5-7.9-7.9c0-4.3,3.5-7.9,7.9-7.9
			c1.7,0,3.3,0.6,4.7,1.6V11.7c-1.7-1.7-2.9-2.9-4.3-4.3l-2.3-2.3H13.5c-0.7,0-1.3,0.6-1.3,1.3v11.9c4.6,0.1,8.3,3.8,8.3,8.4
			C20.6,31.3,16.9,35.1,12.3,35.2z"/>
	</g>
	<g>
		<path class="st0" d="M42,12.1h-5c-1.4,0-2.6-1.2-2.6-2.6v-5c0-0.3,0.3-0.6,0.6-0.6c0.3,0,0.6,0.3,0.6,0.6v5c0,0.7,0.6,1.3,1.3,1.3
			h5c0.3,0,0.6,0.3,0.6,0.6C42.7,11.8,42.4,12.1,42,12.1z"/>
	</g>
	<path class="st0" d="M32.1,13.3H18.3c-0.3,0-0.6-0.3-0.6-0.6c0-0.3,0.3-0.6,0.6-0.6h13.8c0.3,0,0.6,0.3,0.6,0.6
		C32.7,13,32.4,13.3,32.1,13.3z"/>
	<path class="st0" d="M35.8,18.1H18c-0.3,0-0.6-0.3-0.6-0.6c0-0.3,0.3-0.6,0.6-0.6h17.8c0.3,0,0.6,0.3,0.6,0.6
		C36.4,17.9,36.1,18.1,35.8,18.1z"/>
	<path class="st0" d="M36.7,22.5H21.5c-0.3,0-0.6-0.3-0.6-0.6c0-0.3,0.3-0.6,0.6-0.6h15.3c0.3,0,0.6,0.3,0.6,0.6
		C37.3,22.2,37.1,22.5,36.7,22.5z"/>
	<path class="st0" d="M33.3,27H22.6c-0.3,0-0.6-0.3-0.6-0.6c0-0.3,0.3-0.6,0.6-0.6h10.7c0.3,0,0.6,0.3,0.6,0.6
		C33.9,26.7,33.6,27,33.3,27z"/>
	<g>
		<path class="st0" d="M36.7,44.1c-4.3,0-7.9-3.5-7.9-7.9c0-4.3,3.5-7.9,7.9-7.9c2.2,0,4.3,0.9,5.8,2.5c1.3,1.5,2.1,3.3,2.1,5.3
			c0,2-0.7,3.9-2.1,5.3C41,43.2,38.9,44.1,36.7,44.1z M36.7,29.6c-3.6,0-6.6,3-6.6,6.6c0,3.6,3,6.6,6.6,6.6c1.8,0,3.6-0.8,4.9-2.1
			c1.1-1.2,1.7-2.8,1.7-4.5c0-1.7-0.6-3.2-1.7-4.5C40.3,30.4,38.5,29.6,36.7,29.6z"/>
	</g>
	<path class="st0" d="M35.3,39.7c-0.2,0-0.3-0.1-0.5-0.2l-1.6-1.7c-0.2-0.3-0.2-0.6,0-0.9c0.3-0.2,0.6-0.2,0.9,0l1.2,1.2l3.8-4.1
		c0.2-0.3,0.6-0.3,0.9,0c0.3,0.2,0.3,0.6,0,0.9l-4.2,4.6C35.7,39.7,35.5,39.7,35.3,39.7z"/>
	<g>
		<path class="st0" d="M12.2,35.2c-0.2,0-0.4,0-0.6,0c-4.4-0.3-7.9-4-7.9-8.4c0-4.4,3.4-8.1,7.8-8.4c0.2,0,0.4,0,0.6,0
			c4.6,0,8.4,3.8,8.4,8.4C20.6,31.4,16.8,35.2,12.2,35.2z M12.2,19.6c-0.2,0-0.3,0-0.5,0C7.9,19.8,5,23,5,26.7
			c0,3.8,2.9,6.9,6.7,7.1c0.2,0,0.3,0,0.5,0c3.9,0,7.2-3.2,7.2-7.2C19.3,22.8,16.1,19.6,12.2,19.6z"/>
	</g>
	<path class="st0" d="M12.2,32.8c-0.3,0-0.6-0.3-0.6-0.6v-1.5c0-0.3,0.3-0.6,0.6-0.6c0.3,0,0.6,0.3,0.6,0.6v1.5
		C12.8,32.5,12.5,32.8,12.2,32.8z"/>
	<path class="st0" d="M12.2,23.5c-0.3,0-0.6-0.3-0.6-0.6v-1.5c0-0.3,0.3-0.6,0.6-0.6c0.3,0,0.6,0.3,0.6,0.6v1.5
		C12.8,23.2,12.5,23.5,12.2,23.5z"/>
	<path class="st0" d="M12.2,27.5c-1.7,0-3.1-1.1-3.1-2.5c0-1.4,1.4-2.5,3.1-2.5c1.7,0,3.1,1.1,3.1,2.5c0,0.3-0.3,0.6-0.6,0.6
		c-0.3,0-0.6-0.3-0.6-0.6c0-0.7-0.8-1.2-1.8-1.2c-1,0-1.8,0.6-1.8,1.2c0,0.7,0.8,1.2,1.8,1.2c0.3,0,0.6,0.3,0.6,0.6
		C12.8,27.2,12.5,27.5,12.2,27.5z"/>
	<path class="st0" d="M12.2,31.2c-1.7,0-3.1-1.1-3.1-2.5c0-0.3,0.3-0.6,0.6-0.6s0.6,0.3,0.6,0.6c0,0.7,0.8,1.2,1.8,1.2
		s1.8-0.6,1.8-1.2s-0.8-1.2-1.8-1.2c-0.3,0-0.6-0.3-0.6-0.6c0-0.3,0.3-0.6,0.6-0.6c1.7,0,3.1,1.1,3.1,2.5
		C15.3,30.1,13.9,31.2,12.2,31.2z"/>
</g>
<g>
	<path class="st1" d="M67.2,32.6l-5.6-6.8v6.8h-3.1V17.2h3.1v6.9l5.6-6.9h3.7l-6.3,7.6l6.5,7.7H67.2z"/>
	<path class="st1" d="M73,23.2c0.5-1,1.2-1.7,2-2.2c0.8-0.5,1.8-0.8,2.8-0.8c0.9,0,1.7,0.2,2.4,0.6c0.7,0.4,1.2,0.8,1.6,1.4v-1.7H85
		v12.2h-3.1v-1.8c-0.4,0.6-0.9,1-1.6,1.4s-1.5,0.6-2.4,0.6c-1,0-2-0.3-2.8-0.8c-0.8-0.5-1.5-1.3-2-2.2c-0.5-1-0.7-2.1-0.7-3.3
		C72.3,25.2,72.6,24.1,73,23.2z M81.5,24.6c-0.3-0.5-0.7-0.9-1.2-1.2c-0.5-0.3-1-0.4-1.6-0.4s-1.1,0.1-1.6,0.4
		c-0.5,0.3-0.9,0.7-1.2,1.2c-0.3,0.5-0.5,1.2-0.5,1.9c0,0.7,0.2,1.4,0.5,1.9c0.3,0.5,0.7,1,1.2,1.3c0.5,0.3,1,0.4,1.6,0.4
		c0.6,0,1.1-0.1,1.6-0.4c0.5-0.3,0.9-0.7,1.2-1.2c0.3-0.5,0.4-1.2,0.4-1.9C81.9,25.7,81.8,25.1,81.5,24.6z"/>
	<path class="st1" d="M90,32.2c-0.8-0.4-1.4-0.8-1.9-1.5c-0.5-0.6-0.7-1.3-0.8-2h3.1c0.1,0.5,0.3,0.9,0.7,1.2
		c0.4,0.3,0.9,0.5,1.5,0.5c0.6,0,1-0.1,1.4-0.4c0.3-0.2,0.5-0.5,0.5-0.9c0-0.4-0.2-0.7-0.6-0.9c-0.4-0.2-1-0.4-1.9-0.6
		c-0.9-0.2-1.7-0.4-2.2-0.7c-0.6-0.2-1.1-0.6-1.5-1.1c-0.4-0.5-0.6-1.1-0.6-2c0-0.7,0.2-1.3,0.6-1.8c0.4-0.6,0.9-1,1.7-1.3
		c0.7-0.3,1.6-0.5,2.6-0.5c1.5,0,2.6,0.4,3.5,1.1c0.9,0.7,1.3,1.7,1.4,2.9h-2.9c0-0.5-0.2-0.9-0.6-1.2c-0.4-0.3-0.8-0.4-1.4-0.4
		c-0.6,0-1,0.1-1.3,0.3c-0.3,0.2-0.5,0.5-0.5,0.9c0,0.4,0.2,0.7,0.6,0.9c0.4,0.2,1,0.4,1.9,0.6c0.9,0.2,1.6,0.4,2.2,0.7
		c0.6,0.2,1.1,0.6,1.5,1.1s0.6,1.1,0.6,1.9c0,0.7-0.2,1.3-0.6,1.9s-0.9,1-1.7,1.3c-0.7,0.3-1.6,0.5-2.5,0.5
		C91.7,32.8,90.8,32.6,90,32.2z"/>
	<path class="st1" d="M108.7,32.6l-5.6-6.8v6.8H100V17.2h3.1v6.9l5.6-6.9h3.7l-6.3,7.6l6.5,7.7H108.7z"/>
	<path class="st1" d="M126.1,20.4v12.2H123V31c-0.4,0.5-0.9,0.9-1.6,1.2s-1.3,0.5-2.1,0.5c-1,0-1.8-0.2-2.5-0.6s-1.3-1-1.7-1.8
		c-0.4-0.8-0.6-1.7-0.6-2.8v-7.1h3.1v6.7c0,1,0.2,1.7,0.7,2.2c0.5,0.5,1.1,0.8,2,0.8c0.9,0,1.5-0.3,2-0.8c0.5-0.5,0.7-1.3,0.7-2.2
		v-6.7H126.1z"/>
</g>
</svg>
