<?xml version="1.0" encoding="utf-8"?>
<!-- Generator: Adobe Illustrator 24.3.0, SVG Export Plug-In . SVG Version: 6.00 Build 0)  -->
<svg version="1.1" id="Layer_1" xmlns="http://www.w3.org/2000/svg" xmlns:xlink="http://www.w3.org/1999/xlink" x="0px" y="0px"
	 viewBox="0 0 76 95" style="enable-background:new 0 0 76 95;" xml:space="preserve">
<style type="text/css">
	.st0{fill:#6990FF;}
</style>
<g>
	<g>
		<path class="st0" d="M67.4,86.4H18.5c-2.6,0-4.7-2.1-4.7-4.7V65c0-0.3,0.1-0.6,0.4-0.8c0.2-0.2,0.6-0.3,0.9-0.3c0.3,0,0.6,0,0.9,0
			c7.3,0,13.2-5.9,13.2-13.2c0-7.3-5.9-13.2-13.2-13.2c-0.3,0-0.6,0-0.9,0c-0.3,0-0.6-0.1-0.9-0.3s-0.4-0.5-0.4-0.8V13.3
			c0-2.6,2.1-4.7,4.7-4.7H58c0.3,0,0.6,0.1,0.8,0.3l4.6,4.6c2.6,2.6,4.9,4.9,8.2,8.2c0.2,0.2,0.3,0.5,0.3,0.8v36.5
			c0,0.5-0.3,0.9-0.7,1.1c-0.4,0.2-0.9,0.1-1.3-0.3c-2.3-2.5-5.5-3.9-8.9-3.9C54.4,56,49,61.4,49,68.1c0,6.7,5.4,12.1,12.1,12.1
			c3.4,0,6.6-1.4,8.9-3.9c0.3-0.3,0.8-0.5,1.3-0.3c0.4,0.2,0.7,0.6,0.7,1.1v4.7C72,84.3,69.9,86.4,67.4,86.4z M16.1,66.2v15.6
			c0,1.3,1.1,2.3,2.3,2.3h48.9c1.3,0,2.3-1.1,2.3-2.3v-2c-2.5,1.8-5.5,2.9-8.6,2.9c-8,0-14.4-6.5-14.4-14.4c0-8,6.5-14.4,14.4-14.4
			c3.1,0,6.2,1,8.6,2.9V23.1c-3.1-3.1-5.3-5.3-7.9-7.9l-4.3-4.3H18.5c-1.3,0-2.3,1.1-2.3,2.3v22c8.4,0.1,15.3,7,15.3,15.5
			C31.4,59.2,24.6,66.1,16.1,66.2z"/>
	</g>
	<g>
		<path class="st0" d="M70.9,23.8h-9.3c-2.6,0-4.7-2.1-4.7-4.7V9.8c0-0.6,0.5-1.2,1.2-1.2c0.6,0,1.2,0.5,1.2,1.2V19
			c0,1.3,1.1,2.4,2.4,2.4h9.3c0.6,0,1.2,0.5,1.2,1.2C72,23.2,71.5,23.8,70.9,23.8z"/>
	</g>
	<path class="st0" d="M52.6,26H27.3c-0.6,0-1.2-0.5-1.2-1.2c0-0.6,0.5-1.2,1.2-1.2h25.3c0.6,0,1.2,0.5,1.2,1.2
		C53.7,25.5,53.2,26,52.6,26z"/>
	<path class="st0" d="M59.4,34.9H26.7c-0.6,0-1.2-0.5-1.2-1.2c0-0.6,0.5-1.2,1.2-1.2h32.7c0.6,0,1.2,0.5,1.2,1.2
		C60.5,34.4,60,34.9,59.4,34.9z"/>
	<path class="st0" d="M61.1,42.8H33c-0.6,0-1.2-0.5-1.2-1.2c0-0.6,0.5-1.2,1.2-1.2h28.1c0.6,0,1.2,0.5,1.2,1.2
		C62.3,42.3,61.7,42.8,61.1,42.8z"/>
	<path class="st0" d="M54.8,51.2H35.1c-0.6,0-1.2-0.5-1.2-1.2c0-0.6,0.5-1.2,1.2-1.2h19.7c0.6,0,1.2,0.5,1.2,1.2
		C56,50.7,55.4,51.2,54.8,51.2z"/>
	<g>
		<path class="st0" d="M61.1,82.6c-8,0-14.4-6.5-14.4-14.4c0-8,6.5-14.4,14.4-14.4c4,0,7.9,1.7,10.6,4.7c2.5,2.7,3.8,6.1,3.8,9.8
			s-1.3,7.1-3.8,9.8C69,80.9,65.1,82.6,61.1,82.6z M61.1,56C54.4,56,49,61.4,49,68.1c0,6.7,5.4,12.1,12.1,12.1
			c3.4,0,6.6-1.4,8.9-3.9c2.1-2.3,3.2-5.2,3.2-8.2c0-3-1.1-6-3.2-8.2C67.7,57.4,64.5,56,61.1,56z"/>
	</g>
	<path class="st0" d="M58.5,74.6c-0.3,0-0.6-0.1-0.8-0.3l-3-3.1c-0.4-0.5-0.4-1.2,0-1.6c0.5-0.4,1.2-0.4,1.6,0l2.2,2.2l6.9-7.5
		c0.4-0.5,1.2-0.5,1.6-0.1c0.5,0.4,0.5,1.2,0.1,1.6l-7.8,8.4C59.2,74.4,58.8,74.6,58.5,74.6z"/>
	<g>
		<path class="st0" d="M16,66.2c-0.4,0-0.7,0-1.1,0C6.8,65.6,0.5,58.8,0.5,50.7c0-8.1,6.3-14.9,14.4-15.4c0.3,0,0.7,0,1.1,0
			c8.5,0,15.5,6.9,15.5,15.5C31.4,59.2,24.5,66.2,16,66.2z M16,37.5c-0.3,0-0.6,0-0.9,0C8.2,38,2.8,43.8,2.8,50.7
			c0,6.9,5.4,12.7,12.3,13.1c0.3,0,0.6,0,0.9,0c7.3,0,13.2-5.9,13.2-13.2C29.1,43.4,23.2,37.5,16,37.5z"/>
	</g>
	<path class="st0" d="M16,61.8c-0.6,0-1.2-0.5-1.2-1.2v-2.8c0-0.6,0.5-1.2,1.2-1.2c0.6,0,1.2,0.5,1.2,1.2v2.8
		C17.1,61.2,16.6,61.8,16,61.8z"/>
	<path class="st0" d="M16,44.7c-0.6,0-1.2-0.5-1.2-1.2v-2.8c0-0.6,0.5-1.2,1.2-1.2c0.6,0,1.2,0.5,1.2,1.2v2.8
		C17.1,44.2,16.6,44.7,16,44.7z"/>
	<path class="st0" d="M16,52.1c-3.1,0-5.7-2.1-5.7-4.6c0-2.5,2.6-4.6,5.7-4.6c3.1,0,5.7,2.1,5.7,4.6c0,0.6-0.5,1.2-1.2,1.2
		c-0.6,0-1.2-0.5-1.2-1.2c0-1.2-1.6-2.3-3.4-2.3c-1.8,0-3.4,1-3.4,2.3c0,1.2,1.6,2.3,3.4,2.3c0.6,0,1.2,0.5,1.2,1.2
		C17.1,51.6,16.6,52.1,16,52.1z"/>
	<path class="st0" d="M16,58.9c-3.1,0-5.7-2.1-5.7-4.6c0-0.6,0.5-1.2,1.2-1.2c0.6,0,1.2,0.5,1.2,1.2c0,1.2,1.6,2.3,3.4,2.3
		s3.4-1,3.4-2.3s-1.6-2.3-3.4-2.3c-0.6,0-1.2-0.5-1.2-1.2c0-0.6,0.5-1.2,1.2-1.2c3.1,0,5.7,2.1,5.7,4.6C21.7,56.9,19.1,58.9,16,58.9
		z"/>
</g>
</svg>
